<svg width="19" height="35" viewBox="0 0 19 35" fill="none" xmlns="http://www.w3.org/2000/svg">
<path d="M9.39431 32.8863C9.41183 32.4234 9.61844 31.9887 9.96447 31.6872L9.96448 31.6862C12.4036 29.2087 14.1574 26.1217 15.0503 22.7359C15.9431 19.3497 15.9431 15.7846 15.0503 12.3984C14.1574 9.01252 12.4036 5.92544 9.96448 3.44798C9.60421 3.01959 9.4812 2.43491 9.63852 1.89442C9.79541 1.35397 10.2112 0.931156 10.7427 0.771532C11.2745 0.611538 11.8494 0.736267 12.2703 1.10303C15.1123 3.9933 17.156 7.59336 18.1963 11.5412C19.2366 15.4893 19.2366 19.6461 18.1963 23.594C17.156 27.5423 15.1123 31.1423 12.2703 34.0322C11.9739 34.3841 11.5465 34.5942 11.0913 34.6124C10.6361 34.6302 10.1941 34.4539 9.87176 34.1265C9.54982 33.7987 9.37643 33.3492 9.39431 32.8863Z" fill="#7395B3"/>
<path d="M5.33682 8.15558C7.78935 10.6528 9.16582 14.0389 9.16326 17.5685V17.5691C9.16588 21.0987 7.78935 24.4849 5.33682 26.982C4.97618 27.4101 4.85353 27.9947 5.01049 28.5352C5.16776 29.0757 5.58349 29.4985 6.115 29.6585C6.64651 29.8185 7.2214 29.6934 7.64263 29.327C10.708 26.2077 12.4301 21.9788 12.4301 17.5688C12.4301 13.1588 10.7081 8.92954 7.64263 5.81063C7.34625 5.45871 6.91882 5.2486 6.46364 5.23079C6.00808 5.21297 5.56641 5.38893 5.2441 5.71671C4.92179 6.04413 4.74877 6.49367 4.7663 6.95658C4.78382 7.41983 4.99078 7.85415 5.33682 8.15558Z" fill="#7395B3"/>
<path d="M1.86181 10.0336C1.42962 10.0336 1.01532 10.2073 0.708714 10.5173C0.404291 10.8287 0.233494 11.2505 0.233494 11.6896C0.233494 12.1292 0.40432 12.5505 0.708742 12.8623C1.937 14.1099 2.62724 15.803 2.62724 17.5685C2.62724 19.334 1.93707 21.0271 0.708742 22.2747C0.348469 22.7031 0.225513 23.2878 0.38278 23.8283C0.540047 24.3688 0.955828 24.7916 1.48729 24.9516C2.0188 25.1112 2.59368 24.9865 3.01454 24.6197C4.85203 22.7488 5.88393 20.2126 5.88393 17.5685C5.88393 14.9244 4.85203 12.3883 3.01454 10.5173C2.70829 10.2073 2.29363 10.0336 1.86181 10.0336Z" fill="#7395B3"/>
</svg>
