<svg width="147" height="59" viewBox="0 0 147 59" fill="none" xmlns="http://www.w3.org/2000/svg">
<ellipse cx="29.1838" cy="29.5" rx="29.1838" ry="29.5" fill="#69C9FF"/>
<path d="M29.1831 53.5919C24.9029 35.3019 11.1864 29.91 4.86328 29.5003H29.1831V53.5919Z" fill="white"/>
<path d="M29.184 5.40857C33.4643 23.6986 47.1807 29.0905 53.5039 29.5002H29.184V5.40857Z" fill="white"/>
<path d="M80.5489 34.7354V21.4877H82.3252V37.5124H80.4335L70.9521 24.333V37.5124H69.1758V21.4877H71.0675L80.5489 34.7354Z" fill="#224059"/>
<path d="M90.0538 25.6988C91.4687 25.6988 92.5837 26.063 93.3989 26.7914C94.214 27.5046 94.6215 28.4606 94.6215 29.6594V37.5124H92.9144V35.3272C92.5607 36.1012 92.0378 36.7157 91.3457 37.171C90.6536 37.6111 89.8847 37.8311 89.0388 37.8311C87.7623 37.8311 86.7934 37.52 86.1321 36.8978C85.4861 36.2605 85.1632 35.4866 85.1632 34.5761C85.1632 32.6185 86.555 31.4273 89.3387 31.0024L91.7379 30.661C92.2146 30.6003 92.5299 30.494 92.6837 30.3423C92.8375 30.1754 92.9144 29.9326 92.9144 29.6139C92.9144 28.9007 92.653 28.3164 92.1301 27.8612C91.6225 27.4059 90.9074 27.1783 89.9846 27.1783C89.108 27.1783 88.4159 27.3908 87.9084 27.8157C87.4163 28.2254 87.1317 28.7944 87.0548 29.5228H85.3247C85.4323 28.2937 85.9168 27.3528 86.778 26.7003C87.6546 26.0326 88.7466 25.6988 90.0538 25.6988ZM89.3156 36.3971C90.3922 36.3971 91.2611 36.0025 91.9224 35.2134C92.5837 34.4243 92.9144 33.4 92.9144 32.1405V31.5715C92.653 31.7232 92.2531 31.8294 91.7148 31.8901L89.7539 32.186C87.8469 32.4895 86.8934 33.2483 86.8934 34.4623C86.8934 35.0541 87.1087 35.5245 87.5393 35.8735C87.9853 36.2226 88.5774 36.3971 89.3156 36.3971Z" fill="#224059"/>
<path d="M101.436 37.6718C99.4366 37.6718 98.4369 36.7157 98.4369 34.8037V27.5198H96.4761V26.063H98.4369V23.1721H100.144V26.063H102.728V27.5198H100.144V34.7127C100.144 35.2438 100.275 35.6231 100.536 35.8508C100.813 36.0632 101.236 36.1694 101.805 36.1694C102.097 36.1694 102.405 36.1467 102.728 36.1012V37.5352C102.205 37.6262 101.774 37.6718 101.436 37.6718Z" fill="#224059"/>
<path d="M106.062 24.1509C105.708 24.1509 105.401 24.0295 105.139 23.7867C104.893 23.5439 104.77 23.248 104.77 22.899C104.77 22.55 104.893 22.2541 105.139 22.0113C105.401 21.7685 105.708 21.6471 106.062 21.6471C106.4 21.6471 106.692 21.7761 106.938 22.034C107.185 22.2768 107.308 22.5652 107.308 22.899C107.308 23.248 107.185 23.5439 106.938 23.7867C106.692 24.0295 106.4 24.1509 106.062 24.1509ZM106.892 37.5124H105.162V26.063H106.892V37.5124Z" fill="#224059"/>
<path d="M119.068 36.1922C118.037 37.3151 116.691 37.8766 115.03 37.8766C113.369 37.8766 112.016 37.3151 110.97 36.1922C109.924 35.0693 109.402 33.6049 109.402 31.7991C109.402 29.9933 109.924 28.5289 110.97 27.4059C112.016 26.2678 113.377 25.6988 115.054 25.6988C116.699 25.6988 118.037 26.2678 119.068 27.4059C120.098 28.5289 120.613 29.9933 120.613 31.7991C120.613 33.6049 120.098 35.0693 119.068 36.1922ZM115.03 36.3743C116.215 36.3743 117.145 35.9722 117.822 35.1679C118.514 34.3485 118.86 33.2255 118.86 31.7991C118.86 30.3575 118.514 29.2269 117.822 28.4075C117.145 27.588 116.215 27.1783 115.03 27.1783C113.831 27.1783 112.885 27.588 112.193 28.4075C111.516 29.2269 111.178 30.3575 111.178 31.7991C111.178 33.2255 111.516 34.3485 112.193 35.1679C112.885 35.9722 113.831 36.3743 115.03 36.3743Z" fill="#224059"/>
<path d="M128.472 25.6988C129.78 25.6988 130.802 26.1085 131.541 26.9279C132.279 27.7474 132.648 28.8703 132.648 30.2968V37.5124H130.918V30.5699C130.918 28.3088 129.972 27.1783 128.08 27.1783C127.05 27.1783 126.212 27.5577 125.566 28.3164C124.935 29.0752 124.62 30.0843 124.62 31.3438V37.5124H122.913V26.063H124.62V27.6791C125.497 26.3589 126.781 25.6988 128.472 25.6988Z" fill="#224059"/>
<path d="M144.139 28.9083C146.046 29.6822 146.999 31.0252 146.999 32.9372C146.999 34.3181 146.476 35.4866 145.431 36.4426C144.385 37.3986 142.955 37.8766 141.14 37.8766C139.371 37.8766 137.964 37.3758 136.918 36.3743C135.888 35.3728 135.373 34.136 135.373 32.664H137.08C137.126 33.7263 137.503 34.5988 138.21 35.2817C138.917 35.9646 139.886 36.306 141.117 36.306C142.347 36.306 143.339 35.9949 144.093 35.3728C144.862 34.7506 145.246 33.9311 145.246 32.9144C145.246 31.8977 144.869 31.1238 144.116 30.5927C143.362 30.0615 142.332 29.796 141.024 29.796H139.871V28.2709H140.955C142.093 28.2709 142.97 28.0129 143.585 27.497C144.216 26.981 144.531 26.3133 144.531 25.4939C144.531 24.6289 144.216 23.9461 143.585 23.4453C142.97 22.9445 142.132 22.6941 141.071 22.6941C139.948 22.6941 139.079 22.9825 138.464 23.5591C137.849 24.1206 137.518 24.9021 137.472 25.9036H135.719C135.795 24.4468 136.303 23.286 137.241 22.421C138.179 21.556 139.471 21.1235 141.117 21.1235C142.747 21.1235 144.008 21.5408 144.9 22.3755C145.807 23.1949 146.261 24.2192 146.261 25.4484C146.261 26.9962 145.554 28.1495 144.139 28.9083Z" fill="#224059"/>
</svg>
